# xmcd
#
# Track frame offsets:
#	150
#	5642
#	23712
#	39470
#	56655
#
# Disc length: 1178 seconds
#
# Revision: 1
# Processed by: cddbd v1.5.1PL0 Copyright (c) Steve Scherf et al.
# Submitted via: CDex 1.50Beta5
#
DISCID=36049805
DTITLE=Cafelon - Skylovely
DYEAR=2003
DGENRE=Pop
TTITLE0=天気予報
TTITLE1=コーヒー
TTITLE2=金曜七時は夢を見る
TTITLE3=そしてそこにはきみとぼくがいた
TTITLE4=空にいちばん近い日
EXTD=
EXTT0=
EXTT1=
EXTT2=
EXTT3=
EXTT4=
PLAYORDER=
